<svg height="24" viewBox="0 0 24 24" width="24" xmlns="http://www.w3.org/2000/svg"><g fill="none"><path d="m23.3892 12.0093c-.0039-4.13664-.7242-7.80891-2.2621-9.35297-1.5418-1.54404-4.4801-2.65633-9.3357-2.65633-4.85572 0-7.78767 1.11229-9.32956 2.65633-1.541725 1.54406-2.46184 5.21633-2.46184 9.34907v.0039c.00386045 4.1366.923169 7.8089 2.46104 9.353 1.54189 1.544 4.4801 2.6377 9.33576 2.6377 4.8557 0 7.7876-1.0937 9.3295-2.6377 1.5418-1.5441 2.2629-5.2164 2.2629-9.3491z" fill="#443dd8"/><path d="m11.082 14.0019c0 1.4669 1.1875 2.6561 2.6523 2.6561 1.4648 0 2.6522-1.1892 2.6522-2.6561 0-1.4669-1.1874-2.656-2.6522-2.656-1.4648 0-2.6523 1.1891-2.6523 2.656z" fill="#b4b1ef"/><path d="m5.91211 6.1936v11.6273h3.8703v-7.7515h7.74029v-3.8758z" fill="#fff"/></g></svg>