<svg width="172" height="172" viewBox="0 0 172 172" fill="none" xmlns="http://www.w3.org/2000/svg" baseProfile="tiny-ps" version="1.2">
<title>Wiser</title>
<path fill-rule="evenodd" d="M76.0958 26.0426C81.7498 24.7767 85.5713 20.3473 84.6314 16.1493C83.6915 11.9512 78.346 9.57426 72.692 10.8402C67.038 12.1061 63.2165 16.5355 64.1564 20.7335C65.0963 24.9315 70.4417 27.3085 76.0958 26.0426ZM69.1311 24.548C71.3402 24.548 73.1311 22.7572 73.1311 20.548C73.1311 18.3389 71.3402 16.548 69.1311 16.548C66.922 16.548 65.1311 18.3389 65.1311 20.548C65.1311 22.7572 66.922 24.548 69.1311 24.548Z" fill="#464C8C"/>
<path d="M69.1311 24.5479C71.3402 24.5479 73.1311 22.757 73.1311 20.5479C73.1311 18.3388 71.3402 16.5479 69.1311 16.5479C66.922 16.5479 65.1311 18.3388 65.1311 20.5479C65.1311 22.757 66.922 24.5479 69.1311 24.5479Z" fill="white"/>
<path d="M118.131 161.85L129.148 152.41C129.738 151.906 130.11 151.194 130.187 150.423L140.058 50.8847C140.191 49.5472 139.418 48.2847 138.166 47.7949L129.644 44.4601C128.333 43.9472 127.207 43.051 126.414 41.8886L118.131 29.6885V161.85Z" fill="#464C8C"/>
<path fill-rule="evenodd" d="M118.131 29.6884L116.936 27.9277L117.011 162.81L118.131 161.85V29.6884Z" fill="#464C8C"/>
<path fill-rule="evenodd" d="M71.3029 19.6422C71.8792 21.3714 70.9448 23.2403 69.2156 23.8167C68.5663 24.0331 67.7548 24.2887 66.8256 24.5812C64.6837 25.2557 61.9166 26.127 59.0704 27.17C57.063 27.9056 55.1273 28.689 53.5015 29.4847C51.8093 30.3129 50.7174 31.0294 50.1844 31.5531C49.3604 32.3626 48.8676 33.8106 48.9979 36.5237C49.0505 37.6204 49.193 38.7637 49.3856 39.961L115.999 27.6016C116.614 27.4875 117.181 27.9595 117.181 28.5848V162.431C117.181 162.767 116.856 163.007 116.534 162.909L40.8219 139.654C40.432 139.534 40.1539 139.19 40.1191 138.784L32.0037 44.1037C31.9598 43.5911 32.3118 43.1289 32.8176 43.0351L42.8956 41.1652C42.6597 39.708 42.4722 38.238 42.4051 36.8402C42.2468 33.5433 42.6852 29.6679 45.5586 26.8449C46.8742 25.5523 48.7531 24.4602 50.6 23.5563C52.5132 22.6198 54.6848 21.7475 56.7993 20.9726C59.7942 19.8751 62.9033 18.8955 65.076 18.2108C65.9233 17.9439 66.6282 17.7217 67.1284 17.555C68.8575 16.9786 70.7265 17.9131 71.3029 19.6422ZM98.3328 68.3152C99.3405 68.1199 100.284 68.0005 101.163 67.9584C102.042 67.9181 102.808 68.0631 103.46 68.3955C104.112 68.7323 104.636 69.3199 105.031 70.1588C105.426 71.0031 105.653 72.2166 105.713 73.7963C105.713 74.2199 105.604 74.6188 105.387 74.9918C105.169 75.3638 104.893 75.7291 104.557 76.0874C104.221 76.4441 103.845 76.7975 103.431 77.1474C103.016 77.4954 102.611 77.8469 102.215 78.2018C101.82 78.5548 101.46 78.9151 101.133 79.2827C100.808 79.6487 100.565 80.0427 100.407 80.4655L85.2329 114.221C85.1144 114.446 84.9416 114.609 84.7143 114.711C84.4871 114.812 84.2549 114.84 84.0178 114.794C83.5633 114.706 83.1978 114.371 82.9211 113.79L74.8301 97.6842L66.3538 110.696C66.2155 110.876 66.0327 111.005 65.8055 111.083C65.5783 111.16 65.3461 111.175 65.1089 111.129C64.6545 111.041 64.2989 110.753 64.042 110.265L49.1046 86.7555C48.6897 86.209 48.2303 85.7677 47.7265 85.4306C47.2226 85.0986 46.7237 84.8379 46.2298 84.6474C45.7358 84.46 45.2567 84.3142 44.7924 84.209C44.328 84.1059 43.9181 83.998 43.5624 83.8852C43.2067 83.7739 42.9202 83.6445 42.7029 83.4968C42.4855 83.3502 42.3769 83.1373 42.3769 82.8571C42.3769 82.0728 42.698 81.3871 43.3401 80.7935C43.9823 80.1912 44.9208 79.6385 46.1557 79.1352C47.3906 78.6227 48.907 78.1425 50.7051 77.6981C52.5031 77.249 54.5579 76.7988 56.8697 76.3508C57.5612 76.2168 58.3615 76.0874 59.2703 75.9635C60.1793 75.8407 61.1177 75.7488 62.086 75.6887C63.0541 75.6314 64.0074 75.6296 64.946 75.6851C65.8846 75.7451 66.7193 75.8942 67.4504 76.1331C68.1814 76.3776 68.7741 76.7276 69.2286 77.1826C69.683 77.6426 69.9102 78.2339 69.9102 78.9528C69.9102 79.5745 69.777 80.0679 69.5101 80.4317C69.2435 80.7937 68.9471 81.095 68.6211 81.3359C68.295 81.5754 67.9987 81.8007 67.7319 82.012C67.4652 82.2222 67.3318 82.4972 67.3318 82.8378C67.3318 83.0838 67.4108 83.3502 67.5689 83.6379L71.3921 91.4034L75.2153 82.8992C75.2944 82.7481 75.334 82.5905 75.334 82.4265C75.334 82.0576 75.1561 81.759 74.8005 81.5322C74.4448 81.3073 74.0546 81.0678 73.6297 80.8145C73.205 80.5636 72.8149 80.2759 72.4591 79.9516C72.1035 79.6298 71.9256 79.1825 71.9256 78.6075C71.9256 77.5171 72.0985 76.6019 72.4443 75.8583C72.6537 75.4058 72.9281 74.9987 73.268 74.6369C73.4155 74.4725 73.575 74.3177 73.7466 74.1726C74.3393 73.6681 75.0753 73.2545 75.9546 72.9331C76.6546 72.6754 77.4329 72.4505 78.2895 72.2596C78.9671 72.0884 79.7008 71.9261 80.4909 71.7729C81.6172 71.5547 82.6199 71.4426 83.4991 71.4387C84.3784 71.4373 85.1144 71.6001 85.7071 71.9285C86.2998 72.2615 86.7494 72.7891 87.0557 73.511C87.1633 73.7655 87.2519 74.0518 87.3217 74.3697C87.4593 74.9551 87.5281 75.6457 87.5281 76.4402C87.5281 77.1043 87.3502 77.6715 86.9946 78.1399C86.639 78.6058 86.2487 79.0337 85.824 79.4236C85.3991 79.8109 85.0089 80.1694 84.6533 80.4997C84.2975 80.8281 84.1199 81.1917 84.1199 81.5918C84.1199 81.7696 84.1593 81.9324 84.2384 82.0805L87.7373 89.4733L88.5524 91.1397L92.7312 81.2071C92.8102 81.0319 92.8499 80.8484 92.8499 80.6569C92.8499 80.2498 92.672 79.9096 92.3164 79.6378C91.9606 79.3679 91.5755 79.0853 91.1605 78.7907C90.7455 78.4985 90.3602 78.1581 90.0046 77.7696C89.649 77.3836 89.4711 76.854 89.4711 76.1789C89.4711 74.9682 89.6587 73.9312 90.0343 73.0639C90.4097 72.1914 90.9678 71.4576 91.7087 70.8621C92.4497 70.2608 93.3734 69.7572 94.48 69.353C95.5864 68.9453 96.8706 68.5985 98.3328 68.3152Z" fill="#6772E5"/>
<path d="M101.163 67.9577C100.284 67.9998 99.3405 68.1192 98.3328 68.3145C96.8707 68.5978 95.5864 68.9446 94.48 69.3523C93.3735 69.7566 92.4498 70.2601 91.7088 70.8614C90.9679 71.4569 90.4097 72.1908 90.0343 73.0632C89.6588 73.9305 89.4712 74.9675 89.4712 76.1782C89.4712 76.8534 89.6491 77.3829 90.0047 77.7689C90.3602 78.1574 90.7455 78.4978 91.1605 78.79C91.5755 79.0847 91.9607 79.3672 92.3164 79.6371C92.672 79.9089 92.8499 80.2491 92.8499 80.6562C92.8499 80.8477 92.8103 81.0312 92.7312 81.2064L88.5525 91.139L87.7374 89.4726L84.2384 82.0798C84.1594 81.9317 84.12 81.7689 84.12 81.5911C84.12 81.191 84.2976 80.8274 84.6533 80.499C85.0089 80.1687 85.3992 79.8102 85.8241 79.4229C86.2488 79.033 86.6391 78.6051 86.9947 78.1392C87.3503 77.6708 87.5282 77.1036 87.5282 76.4396C87.5282 75.645 87.4594 74.9544 87.3217 74.369C87.252 74.0511 87.1633 73.7648 87.0557 73.5103C86.7495 72.7884 86.2999 72.2608 85.7072 71.9278C85.1145 71.5994 84.3785 71.4366 83.4992 71.438C82.62 71.4419 81.6173 71.554 80.4909 71.7722C79.7009 71.9254 78.9672 72.0877 78.2896 72.2589C77.433 72.4498 76.6547 72.6747 75.9547 72.9324C75.0753 73.2538 74.3394 73.6674 73.7466 74.1719C73.5751 74.317 73.4156 74.4718 73.268 74.6362C72.9282 74.998 72.6537 75.4051 72.4444 75.8576C72.0985 76.6012 71.9257 77.5164 71.9257 78.6068C71.9257 79.1818 72.1036 79.6291 72.4592 79.9509C72.8149 80.2752 73.205 80.5629 73.6298 80.8138C74.0547 81.0671 74.4449 81.3066 74.8006 81.5315C75.1562 81.7584 75.3341 82.0569 75.3341 82.4258C75.3341 82.5898 75.2944 82.7474 75.2154 82.8985L71.3922 91.4027L67.569 83.6372C67.4109 83.3495 67.3319 83.0831 67.3319 82.8371C67.3319 82.4965 67.4653 82.2215 67.7319 82.0113C67.9987 81.8 68.2951 81.5747 68.6211 81.3352C68.9472 81.0943 69.2435 80.793 69.5102 80.431C69.777 80.0672 69.9103 79.5738 69.9103 78.9521C69.9103 78.2332 69.6831 77.6419 69.2286 77.1819C68.7742 76.7269 68.1815 76.3769 67.4505 76.1324C66.7193 75.8935 65.8846 75.7444 64.9461 75.6844C64.0075 75.6289 63.0542 75.6307 62.0861 75.688C61.1178 75.7481 60.1794 75.84 59.2704 75.9628C58.3615 76.0867 57.5613 76.2161 56.8697 76.3501C54.558 76.7981 52.5032 77.2483 50.7051 77.6974C48.9071 78.1418 47.3907 78.622 46.1558 79.1345C44.9208 79.6378 43.9823 80.1905 43.3402 80.7928C42.698 81.3864 42.377 82.0721 42.377 82.8564C42.377 83.1366 42.4856 83.3495 42.7029 83.4962C42.9203 83.6438 43.2068 83.7732 43.5625 83.8845C43.9181 83.9973 44.3281 84.1052 44.7924 84.2083C45.2568 84.3135 45.7359 84.4593 46.2298 84.6467C46.7238 84.8372 47.2227 85.0979 47.7265 85.4299C48.2304 85.767 48.6897 86.2083 49.1047 86.7548L64.0421 110.264C64.299 110.752 64.6546 111.041 65.109 111.129C65.3461 111.175 65.5784 111.159 65.8056 111.082C66.0328 111.004 66.2156 110.876 66.3538 110.696L74.8302 97.6835L82.9212 113.789C83.1979 114.37 83.5634 114.705 84.0178 114.793C84.2549 114.839 84.4872 114.812 84.7144 114.71C84.9416 114.608 85.1145 114.445 85.2329 114.221L100.407 80.4648C100.566 80.042 100.808 79.648 101.134 79.282C101.46 78.9144 101.82 78.5541 102.215 78.2011C102.61 77.8462 103.016 77.4947 103.431 77.1467C103.846 76.7968 104.221 76.4434 104.557 76.0867C104.893 75.7284 105.169 75.3631 105.387 74.9911C105.604 74.6181 105.713 74.2192 105.713 73.7956C105.653 72.2159 105.426 71.0025 105.031 70.1581C104.636 69.3192 104.112 68.7316 103.46 68.3948C102.808 68.0624 102.042 67.9174 101.163 67.9577Z" fill="white"/>
</svg>
