<svg height="49" viewBox="0 0 49 49" width="49" xmlns="http://www.w3.org/2000/svg"><path d="m46.0197 0h-6.1409v25.7582c0 1.2336-.49 2.4166-1.3623 3.2889-.8722.8722-2.0553 1.3623-3.2888 1.3623v-30.4094h-32.88738c-.62029.00129904-1.21481.248287-1.65342.6869-.438613.43861-.68560096 1.03312-.6869 1.65341v43.67939c.00129904.6203.248287 1.2148.6869 1.6534.43861.4386 1.03313.6856 1.65342.6869h6.14087v-25.4878c0-1.2336.49004-2.4166 1.36229-3.2889.87222-.8722 2.05532-1.3623 3.28882-1.3623v30.139h32.8874c.6203-.0013 1.2148-.2483 1.6534-.6869s.6856-1.0331.6869-1.6534v-43.67939c-.0013-.62029-.2483-1.2148-.6869-1.65341-.4386-.438613-1.0331-.68560096-1.6534-.6869zm-19.5141 31.4025c0 1.2336-.4901 2.4166-1.3623 3.2889-.8723.8722-2.0553 1.3623-3.2889 1.3623v-19.0962c0-1.2336.4901-2.4166 1.3623-3.2889.8723-.8722 2.0553-1.3623 3.2889-1.3623z" fill="#fe8300"/></svg>