<svg height="167" viewBox="0 0 141 167" width="141" xmlns="http://www.w3.org/2000/svg" xmlns:xlink="http://www.w3.org/1999/xlink"><linearGradient id="a"><stop offset="0" stop-color="#f9d615"/><stop offset="1" stop-color="#f57b00"/></linearGradient><linearGradient id="b" x1="30.694897%" x2="69.305103%" xlink:href="#a" y1="34.604644%" y2="65.395436%"/><linearGradient id="c"><stop offset="0" stop-color="#004a86"/><stop offset="1" stop-color="#50a2e4"/></linearGradient><linearGradient id="d" x1="31.488861%" x2="68.511626%" xlink:href="#c" y1="76.222772%" y2="23.777228%"/><linearGradient id="e" x1="41.808102%" x2="58.191892%" xlink:href="#c" y1="61.610211%" y2="38.389953%"/><linearGradient id="f" x1="44.226867%" x2="55.773133%" xlink:href="#a" y1="2.232202%" y2="97.767798%"/><linearGradient id="g" x1="48.135205%" x2="51.864801%" y1=".573463%" y2="99.417669%"><stop offset="0" stop-color="#f57b00"/><stop offset="1" stop-color="#f9d515"/></linearGradient><linearGradient id="h" x1="41.756405%" x2="58.243583%" xlink:href="#c" y1="16.335013%" y2="83.65612%"/><mask id="i" fill="#fff"><path d="m102.198664 167.199996-72.4359981-48.546666c-17.5786662-11.639999-29.46666591-31.0799989-29.7026659-55.1466649v-44.2666656l25.8279994-19.14666617v44.42666557 21.5199994c.0666666 9.4666665 4.4959998 19.1599996 12.5986663 25.6933327l37.8853324 25.399999v-69.8933312l25.8266659 17.3066663z" fill="#fff" fill-rule="evenodd"/></mask><mask id="j" fill="#fff"><path d="m.06666667 167.199996 62.37199843-41.799999c-7.0813332-5.4-13.8986663-12.133333-19.4386662-19.733333l-17.1053329 11.466666v-69.8933312l-25.82799933 17.3066663zm94.28533093-72.3599984c4.8959999-9.1199997 7.7399994-19.6799995 7.8533334-31.3333325v-44.7199989l-25.8266662-18.69333287v44.42666557 21.5199994c-.0253334 3.6533333-.704 7.3466665-1.996 10.8799998 1.4853333 3.3999999 3.7079999 6.5733331 7.0106665 9.2399997z" fill="#fff" fill-rule="evenodd"/></mask><mask id="k" fill="#fff"><path d="m2.75733326 81.5733313c15.14399964-14.333333 25.17066604-33.7066658 25.18133274-62.7866651v-.04l-25.82666605-18.65333287v44.42666557 21.5199994c-.00266667.28-.008.5733334-.01866667.8533334v.0266666c-.01066667.2933334-.02533333.5866667-.044.88l-.00266666.04-.03066667.4133333v.0133334c-.02266667.2933333-.04933333.5733333-.08.8666666l-.00133333.0133333c-.016.1466667-.032.2933334-.04933333.4266667l-.00133334.0133333-.00666666.0533334c-.052.4266666-.11333333.8533333-.18266667 1.2799999l-.00133333.0133334c-.024.1333333-.048.28-.07333333.4266666h-.00133333c-.05066667.28-.104.5733333-.16133333.8533333l-.008.0266667c-.092.44-.192.88-.30133333 1.32l-.00133333.0133333-.108.4133333-.00533333.0266667-.10933333.4h-.00133334l-.00533333.0266666-.01066667.04-.09999999.3466667-.01466667.0533333-.01333333.04-.10266667.3333334-.01466666.0533333-.03733334.12-.08533333.2666666-.01466666.0533334-.00533334.0133333-.05599999.16-.05466667.1733352-.05733333.1599981-.05733333.1733334-.01466667.04-.08933333.2533333-.01333333.04-.06.16c.70266665 1.6133333 1.57066662 3.1733352 2.64133326 4.6533332z" fill="#fff" fill-rule="evenodd"/></mask><mask id="l" fill="#fff"><path d="m52.365332 101.039997c-29.1239992-16.9199991-52.305332-37.5333319-52.305332-81.7999975l25.8279994-19.14666617v44.42666557 21.5199994c.0666666 9.4666665 4.4959998 19.1599996 12.5986663 25.6933327z" fill="#fff" fill-rule="evenodd"/></mask><mask id="m" fill="#fff"><path d="m.10533333.04v69.8933316c16.87733287 11.573333 25.82666607 9.2266664 25.82666607-13.0666664v-39.519999z" fill="#fff" fill-rule="evenodd"/></mask><mask id="n" fill="#fff"><path d="m25.8933327.04v69.8933316c-16.87733293 11.573333-25.82666603 9.2266664-25.82666603-13.0666664v-39.519999z" fill="#fff" fill-rule="evenodd"/></mask><g fill="none" fill-rule="nonzero"><g fill="url(#b)" mask="url(#i)" transform="matrix(1 0 0 -1 38.266666 167.199996)"><path d="m102.198664 167.199996-72.4359981-48.546666c-17.5786662-11.639999-29.46666591-31.0799989-29.7026659-55.1466649v-44.2666656l25.8279994-19.14666617v44.42666557 21.5199994c.0666666 9.4666665 4.4959998 19.1599996 12.5986663 25.6933327l37.8853324 25.399999v-69.8933312l25.8266659 17.3066663z"/></g><g fill="url(#d)" mask="url(#j)" transform="matrix(1 0 0 -1 0 167.199996)"><path d="m.06666667 167.199996 62.37199843-41.799999c-7.0813332-5.4-13.8986663-12.133333-19.4386662-19.733333l-17.1053329 11.466666v-69.8933312l-25.82799933 17.3066663zm94.28533093-72.3599984c4.8959999-9.1199997 7.7399994-19.6799995 7.8533334-31.3333325v-44.7199989l-25.8266662-18.69333287v44.42666557 21.5199994c-.0253334 3.6533333-.704 7.3466665-1.996 10.8799998 1.4853333 3.3999999 3.7079999 6.5733331 7.0106665 9.2399997z"/></g><g fill="url(#e)" mask="url(#k)" transform="matrix(1 0 0 -1 74.266665 167.199996)"><path d="m2.75733326 81.5733313c15.14399964-14.333333 25.17066604-33.7066658 25.18133274-62.7866651v-.04l-25.82666605-18.65333287v44.42666557 21.5199994c-.00266667.28-.008.5733334-.01866667.8533334v.0266666c-.01066667.2933334-.02533333.5866667-.044.88l-.00266666.04-.03066667.4133333v.0133334c-.02266667.2933333-.04933333.5733333-.08.8666666l-.00133333.0133333c-.016.1466667-.032.2933334-.04933333.4266667l-.00133334.0133333-.00666666.0533334c-.052.4266666-.11333333.8533333-.18266667 1.2799999l-.00133333.0133334c-.024.1333333-.048.28-.07333333.4266666h-.00133333c-.05066667.28-.104.5733333-.16133333.8533333l-.008.0266667c-.092.44-.192.88-.30133333 1.32l-.00133333.0133333-.108.4133333-.00533333.0266667-.10933333.4h-.00133334l-.00533333.0266666-.01066667.04-.09999999.3466667-.01466667.0533333-.01333333.04-.10266667.3333334-.01466666.0533333-.03733334.12-.08533333.2666666-.01466666.0533334-.00533334.0133333-.05599999.16-.05466667.1733352-.05733333.1599981-.05733333.1733334-.01466667.04-.08933333.2533333-.01333333.04-.06.16c.70266665 1.6133333 1.57066662 3.1733352 2.64133326 4.6533332"/></g><g fill="url(#f)" mask="url(#l)" transform="matrix(1 0 0 -1 38.266666 167.199996)"><path d="m52.365332 101.039997c-29.1239992-16.9199991-52.305332-37.5333319-52.305332-81.7999975l25.8279994-19.14666617v44.42666557 21.5199994c.0666666 9.4666665 4.4959998 19.1599996 12.5986663 25.6933327z"/></g><g fill="url(#g)" mask="url(#m)" transform="matrix(1 0 0 -1 114.53333 119.999997)"><path d="m.10533333.04v69.8933316c16.87733287 11.573333 25.82666607 9.2266664 25.82666607-13.0666664v-39.519999z"/></g><g fill="url(#h)" mask="url(#n)" transform="matrix(1 0 0 -1 0 119.999997)"><path d="m25.8933327.04v69.8933316c-16.87733293 11.573333-25.82666603 9.2266664-25.82666603-13.0666664v-39.519999z"/></g></g></svg>