<?xml version="1.0" encoding="utf-8"?>
<!-- Generator: Adobe Illustrator 21.0.1, SVG Export Plug-In . SVG Version: 6.00 Build 0)  -->
<svg version="1.1" id="Layer_1" xmlns="http://www.w3.org/2000/svg" xmlns:xlink="http://www.w3.org/1999/xlink" x="0px" y="0px"
	 viewBox="0 0 597.2 543.6" style="enable-background:new 0 0 597.2 543.6;" xml:space="preserve">
<style type="text/css">
	.st0{fill:#E5375B;}
</style>
<title>Fusia</title>
<path class="st0" d="M526.1,274.6c5.2-12,9.7-24.2,13.4-36.7c21.1-71.4,10.3-133.2-30.6-174.1C482,36.9,445.1,22.7,402.2,22.7
	c-17.6,0.1-35.1,2.3-52.2,6.4c-31.6-20.6-72.3-20.6-103.9,0C229,25,211.6,22.8,194,22.7c-42.9,0-79.8,14.2-106.7,41.1
	c-40.9,40.9-51.8,102.7-30.7,174.1c3.7,12.5,8.2,24.8,13.5,36.7c-5.2,12-9.7,24.2-13.5,36.8c-21.1,71.4-10.2,133.2,30.7,174.1
	c26.9,26.9,63.7,41.1,106.7,41.1c19.9-0.2,39.7-2.9,58.9-8.1c28.2,15.3,62.2,15.3,90.4,0c19.2,5.2,39,7.9,58.9,8.1
	c42.9,0,79.8-14.2,106.7-41.1c40.9-40.9,51.8-102.7,30.6-174C535.8,298.9,531.3,286.6,526.1,274.6z M492.1,468.6
	c-22.4,22.4-53.4,34.2-89.9,34.2c-18.9,0-39.3-3.2-60.6-9.5l-1.9-0.6c-24.8,17.9-58.3,17.9-83.1,0c-0.7,0.2-1.3,0.4-1.9,0.6
	c-21.3,6.3-41.7,9.5-60.6,9.5c-36.5,0-67.6-11.8-89.9-34.2c-34.5-34.4-43.2-87.9-24.7-150.5c4.5-14.9,10.1-29.4,16.8-43.5
	c-6.7-14-12.3-28.6-16.8-43.5C60.8,168.6,69.6,115.1,104,80.6c22.4-22.3,53.5-34.2,90-34.2c18,0,37.2,2.9,57.3,8.5
	c26.8-23.4,66.8-23.4,93.6,0c20.1-5.7,39.3-8.5,57.3-8.5c36.5,0,67.6,11.8,89.9,34.2c34.4,34.5,43.2,87.9,24.7,150.5
	c-4.5,14.9-10.1,29.4-16.8,43.5c6.7,14.1,12.3,28.6,16.8,43.5C535.3,380.7,526.5,434.2,492.1,468.6L492.1,468.6z"/>
<path class="st0" d="M467.7,104.9c-17-17-41.3-26-70-26c-16,0-33.3,2.7-51.6,8.1c-3.5,1-6.9,2.1-10.4,3.3
	c-13.9-20.8-42.1-26.4-62.9-12.5c-4.9,3.3-9.2,7.6-12.5,12.5c-3.5-1.2-6.9-2.3-10.4-3.3c-18.2-5.4-35.6-8.1-51.6-8.1
	c-28.8,0-53,9-70,26c-26.8,26.8-33.2,70-17.9,121.6c5,16.6,11.6,32.7,19.6,48.1c-8,15.4-14.6,31.5-19.6,48.1
	c-15.3,51.6-8.9,94.8,17.9,121.6c17,17,41.2,26,70,26c15.9,0,33.3-2.8,51.6-8.1c4.5-1.3,9.1-2.9,13.7-4.5c16.2,19,44.8,21.3,63.8,5
	c1.8-1.5,3.5-3.2,5-5c4.6,1.6,9.1,3.2,13.7,4.5c18.3,5.4,35.6,8.1,51.6,8.1c28.8,0,53-9,70-26c26.8-26.8,33.1-70,17.9-121.6
	c-5-16.6-11.6-32.7-19.6-48.1c8-15.4,14.6-31.5,19.6-48.1C500.9,174.9,494.5,131.7,467.7,104.9z M279.2,113.8c0.2-2,0.7-4,1.5-5.9
	c4.2-9.6,15.4-14,25.1-9.7c4.3,1.9,7.8,5.4,9.7,9.7c0.8,1.9,1.3,3.8,1.5,5.8c0.1,0.6,0.1,1.1,0.1,1.7c-0.6,10.5-9.6,18.4-20.1,17.8
	c-9.6-0.6-17.2-8.2-17.8-17.8C279.1,114.9,279.1,114.4,279.2,113.8z M147.1,123.5c12.2-12.1,29.4-18.3,51.4-18.3
	c13.4,0,28.2,2.4,44.1,7c3.4,1,6.8,2.1,10.2,3.3c0,5.7,1.1,11.4,3.3,16.7c-19.3,13.7-37.5,29.1-54.2,45.9
	c-21,20.8-39.6,43.8-55.6,68.7c-4-9.1-7.4-18.4-10.3-27.9C123.4,177.1,127.4,143.2,147.1,123.5z M253,433.4
	c-3.6,1.3-7.1,2.4-10.6,3.4c-15.8,4.7-30.6,7.1-44.1,7.1c-21.9,0-39.2-6.2-51.4-18.3c-19.7-19.7-23.7-53.6-11.3-95.4
	c2.8-9.5,6.3-18.8,10.3-27.9c16,24.8,34.7,47.9,55.6,68.7c16.3,16.4,34,31.4,52.7,44.8C252.8,421.4,252.3,427.4,253,433.4z
	 M316.2,433.3c-0.5,1.9-1.4,3.8-2.5,5.4c-5.8,8.7-17.6,11-26.3,5.2c-2-1.4-3.8-3.1-5.2-5.2c-1.1-1.7-2-3.5-2.5-5.5
	c-0.5-1.6-0.7-3.4-0.7-5.1c0-2.5,0.5-5,1.5-7.3c0.8-1.9,1.9-3.6,3.2-5.1c6.8-7.9,18.7-8.8,26.6-2c0.7,0.6,1.4,1.3,2,2
	c1.3,1.5,2.4,3.2,3.2,5.1c1,2.3,1.5,4.8,1.5,7.3C317,429.9,316.8,431.6,316.2,433.3L316.2,433.3z M327.3,393.5
	c-16.9-14.3-41.7-14.3-58.6,0c-17.2-12.4-33.4-26.3-48.4-41.3c-24-24.1-44.8-50.8-60.2-77.7c15.4-26.9,36.2-53.6,60.2-77.7
	c16.1-16.1,33.5-30.8,52.1-43.9c15.4,10.6,35.8,10.6,51.2,0c18.6,13.1,36,27.8,52.1,43.9c24,24.1,44.8,50.8,60.2,77.7
	c-15.4,26.9-36.2,53.6-60.2,77.7C360.7,367.3,344.6,381.1,327.3,393.5L327.3,393.5z M449,425.5c-12.2,12.2-29.5,18.3-51.4,18.3
	c-13.4,0-28.2-2.4-44-7.1c-3.5-1-7-2.2-10.5-3.4c0.2-1.7,0.3-3.5,0.3-5.3c0-4.2-0.6-8.4-1.7-12.4c18.8-13.5,36.4-28.5,52.8-44.8
	C415.4,350,434,327,450,302.2c4,9.1,7.4,18.4,10.3,27.9C472.7,372,468.7,405.9,449,425.5L449,425.5z M460.3,218.9
	c-2.8,9.5-6.3,18.8-10.3,27.9c-16-24.8-34.7-47.9-55.6-68.7c-16.7-16.8-34.9-32.2-54.2-45.9c2.1-5.3,3.2-11,3.2-16.7
	c3.5-1.2,6.9-2.3,10.3-3.3c15.8-4.7,30.6-7,44.1-7c21.9,0,39.2,6.2,51.3,18.3C468.7,143.2,472.7,177.1,460.3,218.9L460.3,218.9z"/>
</svg>
