<svg viewBox=".04 .05 37.72 37.94" xmlns="http://www.w3.org/2000/svg"><g fill="#470fb2"><path d="m35.35 35.22-1.74-4.51a18.86 18.86 0 1 0 -6.91 5.37l6.18 1.82a2 2 0 0 0 .58.09 2 2 0 0 0 1.38-.54h.14v-.13a2 2 0 0 0 .37-2.1zm-4-6.38c-.22.28-.46.56-.71.83l-.4.43 1.64 4.46-5.44-1.62-.34.17c-.41.21-.84.41-1.27.58a16 16 0 1 1 6.52-4.85z"/><path d="m18.89 9a9.8 9.8 0 0 0 -4.23 1 9.87 9.87 0 0 0 -5.66 8.2v.13a6 6 0 0 0 0 .61v.06a9.91 9.91 0 0 0 19.79.74.62.62 0 0 1 0-.13v-.72a9.92 9.92 0 0 0 -9.9-9.89zm6.11 10a6.1 6.1 0 0 1 -.13 1.23 6.38 6.38 0 0 1 -.35 1.15 6 6 0 0 1 -.51.93l-.18.26a5.68 5.68 0 0 1 -.5.6l-.21.22a6.08 6.08 0 0 1 -1.74 1.18l-.3.11a4.8 4.8 0 0 1 -.76.24l-.32.08a5.88 5.88 0 0 1 -2.69-.1 6.08 6.08 0 0 1 -3.61-2.67 8 8 0 0 1 -.4-.77c0-.1-.08-.21-.11-.31a6.18 6.18 0 0 1 -.23-.73l-.06-.26a6.23 6.23 0 0 1 -.11-1.16 6 6 0 0 1 .48-2.37 5.91 5.91 0 0 1 .5-.93l.18-.26a7.22 7.22 0 0 1 .5-.6l.21-.22a5.22 5.22 0 0 1 .82-.67 6 6 0 0 1 .93-.51l.29-.11a5.15 5.15 0 0 1 .76-.24l.32-.07a5.8 5.8 0 0 1 1.11-.11 6.46 6.46 0 0 1 1.4.17h.17a2.45 2.45 0 0 0 -.69.46 2.59 2.59 0 0 0 1.74 4.52 2.53 2.53 0 0 0 1.06-.24 2.59 2.59 0 0 0 1.5-2.07 6.26 6.26 0 0 1 .4.77 2.85 2.85 0 0 1 .12.31 5.62 5.62 0 0 1 .22.73 4.17 4.17 0 0 1 .1.6 5.43 5.43 0 0 1 .09.84z"/></g></svg>