<svg width="90" height="90" viewBox="0 0 90 90" fill="none" xmlns="http://www.w3.org/2000/svg">
<rect width="90" height="90" fill="black"/>
<g clip-path="url(#clip0)">
<path d="M74.037 74.612V23.343L15.087 16L15.034 35.71L23.959 36.798L23.965 26.062L65.14 31.204L65.085 64.704L41.56 61.789V70.589L74.037 74.612Z" fill="#2A92D0"/>
<path d="M32.238 56.113V64.273L19.238 62.673L19.311 46.346L23.411 46.854C22.7216 45.2178 22.3369 43.4694 22.276 41.695L15.121 40.81H15.053L15.002 67.321L36.471 69.968V57.243C35.0153 57.0602 33.5912 56.68 32.238 56.113V56.113Z" fill="#2A92D0"/>
<path d="M30.71 51.389C29.4072 50.3966 28.3044 49.1662 27.46 47.763C27.43 47.714 27.405 47.663 27.377 47.616C26.3919 45.9331 25.804 44.0475 25.658 42.103L22.284 41.676C22.3407 43.543 22.721 45.386 23.408 47.123C23.493 47.336 23.581 47.55 23.672 47.752C24.8122 50.2983 26.5887 52.5082 28.8305 54.1689C31.0724 55.8296 33.704 56.8852 36.472 57.234V53.843C34.3813 53.5061 32.4046 52.6633 30.714 51.388L30.71 51.389Z" fill="white"/>
<path d="M31.299 42.813L29.806 42.627L27.842 42.386C28.035 44.438 28.8358 46.3857 30.142 47.98L30.197 48.052C30.389 48.2827 30.591 48.5053 30.803 48.72C32.3402 50.2677 34.32 51.2999 36.469 51.674V48.262C35.1826 47.9308 34.0154 47.244 33.101 46.2804C32.1867 45.3167 31.5622 44.1151 31.299 42.813Z" fill="white"/>
<path d="M33.503 43.072C33.7305 43.7713 34.1172 44.4083 34.6328 44.9327C35.1484 45.4571 35.7786 45.8546 36.474 46.094V43.447L33.503 43.072Z" fill="white"/>
</g>
<defs>
<clipPath id="clip0">
<rect width="59.041" height="58.612" fill="white" transform="translate(15 16)"/>
</clipPath>
</defs>
</svg>
